<svg width="100" height="22" xmlns="http://www.w3.org/2000/svg"><g stroke="none" stroke-width="1" fill-rule="evenodd"><path d="M87.6,13.2h7.9c.6,0,.7-.3.7-.7V11.9c0-.2.1-.3.3-.3h1c.3,0,.3.1,.3.3v1.4c0,.9-1,1.7-2.1,1.7c0,0-1,0-3.1,0v2c0,1.2-.7,2-1.7,2H89.2c-.1,0-.3-.1-.3-.3V18.5c0-.5.5-.8,1.1-.8l.4,0c.4,0,.6-.3.6-.7V14.9c-3.2,0-4.8,0-4.9,0c-.7,0-.9-.5-.7-.9l1.1-2c-.5,0-.7,0-.7,0c-.7,0-.6-.7-.4-1.1L86.3,9.2c0-.1.1-.5.5-.5s1.3.3,1,1L87.5,10.3c4.9,0,7.3,0,7.3,0c.5,0,.7.1,.7.3c0,.4-.2,1.4-1.4,1.4c-1.2,0-5.6,0-5.9,0l-.6,1.2zM90.6,6.5L90.6,5.6H85.7c-.2,0-.3-.1-.3-.3V4.4c0-.2.2-.3.3-.3h4.9L90.6,3.3c0-.2.2-.3.4-.3L92,3C92.2,3,92.4,3.2,92.4,3.3V4h4.9c.2,0,.3.1,.3.3V4.7c0,.5-.5.8-1.7.8h-3.5L92.4,6.5h4.9C98.4,6.5,99,7.1,99,8.2V8.9c0,.3-.2.5-.5.5H97.8c-.4,0-.5-.2-.5-.5V8.5c0-.3-.3-.5-.5-.5H86.3c-.3,0-.5.3-.5.5V8.9c0,.3-.2.5-.5.5H84.5C84.2,9.4,84,9.2,84,8.9L84,8.2C84,7.2,84.6,6.5,85.7,6.5h4.9zM99,18c0,0,0,.7,0,.7C99,18.9,98.8,19,98.7,19c0,0-.1,0-.1,0L94.6,17.3,94.6,17.3C94.3,17.2,94.1,16.9,94.1,16.6c0,0,0-.7,0-.7c0-.2.2-.3.3-.3c0,0,.1,0,.1,0l3.9,1.7.1,0c.3.1,.4.4,.5.7zM89.2,15.6c0,0,0,.9,0,.9c0,.3-.1.5-.3.6c0,0-.1,0-.1.1c-.6.4-2.2,1.2-4.3,1.8C84.4,19,84.4,19,84.4,19c-.2,0-.3-.1-.3-.3c0,0,0-.8,0-.8C84,17.6,84.2,17.3,84.5,17.2c0,0,0,0,0,0c.9-.3,2.5-.9,4.2-1.9c.1,0,.1,0,.2,0c.2,0,.3.2,.3.3z" fill="#fff" /><path d="M77.1,11.5c0,0,0,.3,0,.9c.2,0,3.8,0,3.8,0c.3,0,.7.3,.7.7c0,.2,0,.4-.1.5c-.3.5-.8,1.1-1.3,1.5c-.5.4-1.2,1-2.1,1.5c2.1.6,3.3,1,3.5,1C82,17.7,82,18,82,18.3c0,.1,0,.2-.1.3c-.1.2-.6.6-1.9.2L76.2,18c-1.8.8-3,.8-3.8,1c-1,.1-1.7-.3-1.8-.5S70.5,18.2,70.5,18.1c0-.1.1-.4.3-.4c.2,0,2.8-.4,3.5-.7L71.7,15.7C71.6,15.7,71.5,15.6,71.5,15.4V15.3c0-.4.7-1.1,2.4-.3l2.3,1c1-.5,1.7-1.1,2.6-1.9H72.1c-.7,0-1.1-.8-1.1-1.4c0-.2.2-.3.3-.3h3.8L75.2,11.5H72.9c-1,0-1.9-.7-1.9-1.7c0-.1,0-1.5,0-4.1c0-1.1.8-2,1.7-2L74.2,3.7c.2,0,.4.2,.4.3V4.4c0,.3.1,1-1,1c-.3,0-.7.3-.7.7v.7C73.6,6.7,74,6.7,74.2,6.7c.2,0,.3.2,.3.3c0,.2,0,.8,0,1c0,.2-.2.3-.3.3c-.1,0-.6,0-1.4,0c0,.6,0,1,0,1c0,.1.1,.3.4,.3c.2,0,.9,0,2.1,0L75.2,3.3C75.2,3.2,75.4,3,75.6,3h1.2c.2,0,.3.2,.3.3L77.1,9.8c1.3,0,2,0,2.1,0c.1,0,.3,0,.3-.3c0-.2,0-.6,0-1C78.8,8.4,78.3,8.4,78.2,8.4c-.2,0-.4-.1-.4-.3c0-.2,0-.8,0-1S78,6.7,78.2,6.7c.1,0,.6,0,1.4,0C79.6,6.5,79.6,6.3,79.6,6.1C79.6,5.7,79.6,5.4,79.2,5.4c-1.2,0-1.4-.6-1.4-1V4c0-.2.2-.3.3-.3l1.4,0c1,0,1.7.9,1.7,2s0,3.1,0,4.1c0,1-.7,1.7-1.7,1.7c-1.6,0-2.4,0-2.4,0zM68.8,5.4h1c.2,0,.4.2,.4.3V6.7c0,.2-.2.3-.4.3H68.8V11.1c.4-.2.7-.4.8-.4c.2-.1.5-.1.5,.3V12.1c0,.1-.1.2-.3.4L68.8,13v3.6C68.8,18,68.1,19,66.7,19c-.8,0-1.3,0-1.4,0C65.2,19,65,18.8,65,18.7c0-.1,0-.2,0-.3c0-.3.3-.7,1.4-.7c.3,0,.7-.5.7-1l-.1-2.9-1.4.6c-.2.1-.4,0-.4-.2l0-1c0-.3.2-.4.3-.5l1.4-.7.1-4.8c0,0-.9,0-.9,0c-1,0-1-.3-1-.7V5.7c0-.2.2-.3.3-.3L67.1,5.4V3.3C67.1,3.2,67.2,3,67.4,3h1c.2,0,.3.2,.3.3V5.4z" fill="#fff" /><path d="M61.1,15.2c0,1.4-.4,2-2.3,2c-1.9,0,.1,0-1.6,0c-1.7,0-2.3-.6-2.3-2s0-5.5,0-7.2S55.2,5.8,57.2,5.8c1.3,0,1.9,0,1.6,0c2,0,2.3.5,2.3,2.3c0,1.7,0,5.8,0,7.2zM56.7,4C54.1,4,53,5,53,7.9c0,2.9,0,5.5,0,7.8S54.3,19,56.7,19c2.3,0,.3,0,2.7,0S63,18,63,15.7S63,10.8,63,7.9C63,5,61.9,4,59.3,4s-.1,0-2.7,0z" fill="#fff" /><path d="M49.1,15.8c0,1.3-.4,1.4-1.9,1.4H45.2c-1.4,0-2.3,0-2.3-1.3L42.9,12.3c0-.2.1-.3.3-.3h4.1c1.3,0,1.7.5,1.7,1.4v2.4zM42.9,10.2C42.9,9.5,42.9,8.7,42.9,7.6c0-1.6.1-1.8,1.5-1.8s2.9,0,4.1,0C49.8,5.8,50.2,5.3,50.2,4.8c0-.5,0-.3,0-.5C50.2,4.2,50,4,49.9,4S46.9,4,44.5,4C42,4,41,5,41,7.6c0,2.6,0,6.8,0,8.5C41,17.7,41.7,19,44.5,19c2.8,0,.7,0,3.1,0S51,18.2,51,16.4c0-1.8,0-1.6,0-3.2c0-1.6-.7-3-3.4-3c-1.8,0-3.4,0-4.6,0z" fill="#fff" /><path d="M29.4,4C29.2,4,29,4.2,29,4.4c0,.2,0-.1,0,.3c0,.4.3,1.1,1.5,1.1c1.2,0,2.6,0,4.2,0s2.3.1,2.3,1.4c0,.9,0,1.8,0,2.9c-4.5,0-6.8,0-6.9,0c-.2,0-.4.2-.4.4s0,.9,0,1.1c0,.2.2,.4.4,.4s6.6,0,6.8,0c.1,0,.2,0,.2.1c0-.5,0,2.1,0,3.4s-.6,1.8-1.9,1.8c-1.4,0-3.5,0-4.6,0c-1.1,0-1.5.6-1.5,1.1c0,.5,0,.2,0,.4S29.2,19,29.3,19s4.5,0,6.5,0C38,19,39,17.5,39,15.4c0-2.1,0-6.1,0-8.2S37.5,4,35.9,4C34.3,4,29.6,4,29.4,4z" fill="#fff" /><path d="M20.3,19.7c0-1.3,1-2.3,2.3-2.3C24,17.3,25,18.4,25,19.7C25,21,24,22,22.7,22c-1.3,0-2.3-1-2.3-2.3z" fill="#ff9932" /><path d="M20.6,15.3L17.4,14C17.1,13.9,17.1,13.7,17.2,13.5c.3-.8.4-1.6.4-2.5C17.7,7.4,14.6,4.3,11,4.3c-3.6,0-6.7,3.1-6.7,6.7c0,.8.2,1.7.5,2.5c.1.1,.1.3,0,.5c-.1.1-.2,0-.3,0L1.3,15.1C1.3,15.1,1.2,15.1,1.2,15.1c-.2,0-.4-.1-.5-.3C.2,13.5,0,12.3,0,11c0-6,4.9-11,11-11c6.1,0,11,4.9,11,10.9c0,1.4-.3,2.8-.8,4.1c0,.1-.2.2-.3.3c-.1,0-.1,0-.2,0c-.1,0-.1,0-.2,0z" fill="#0fb264" /><path d="M1.2,16.1C1,15.7.9,15.3.7,14.9C.7,14.8.7,14.6.7,14.5c0-1.2,1-2.2,2.2-2.2c.9,0,1.7.5,2.1,1.4c0,.1.2,.3.2,.4C6.3,16.3,8.5,17.7,11,17.7c2.4,0,4.6-1.4,5.8-3.5c.1-.2.4-.7.4-.8c.4-.7,1.1-1.1,1.9-1.1c1.2,0,2.2,1,2.2,2.2c0,.2,0,.3-.1.5s-.1.4-.2.6l0,0c0,.1-.1.2-.1.3C19,19.7,15.2,22,11,22C6.9,22,3.1,19.7,1.2,16.1z" fill="#ff9932" /></g></svg>