<?xml version="1.0" encoding="UTF-8"?>
<svg width="80px" height="60px" viewBox="0 0 80 60" version="1.1" xmlns="http://www.w3.org/2000/svg" xmlns:xlink="http://www.w3.org/1999/xlink">
    <title>logo 新</title>
    <defs>
        <linearGradient x1="41.941035%" y1="82.7345591%" x2="62.3302977%" y2="26.9250605%" id="linearGradient-1">
            <stop stop-color="#2075ED" offset="0%"></stop>
            <stop stop-color="#115BCA" offset="100%"></stop>
        </linearGradient>
        <linearGradient x1="-0.04490467%" y1="50.0292905%" x2="99.9714069%" y2="50.0292905%" id="linearGradient-2">
            <stop stop-color="#02CEF5" offset="0%"></stop>
            <stop stop-color="#04CAF5" offset="20.7%"></stop>
            <stop stop-color="#08BDF4" offset="42.15%"></stop>
            <stop stop-color="#10A9F3" offset="63.95%"></stop>
            <stop stop-color="#1B8CF2" offset="85.84%"></stop>
            <stop stop-color="#2375F1" offset="100%"></stop>
        </linearGradient>
        <linearGradient x1="54.7352874%" y1="71.2029581%" x2="41.8281443%" y2="15.9559573%" id="linearGradient-3">
            <stop stop-color="#2177F1" offset="0%"></stop>
            <stop stop-color="#1971ED" offset="41.85%"></stop>
            <stop stop-color="#0B66E6" offset="83.9%"></stop>
        </linearGradient>
        <linearGradient x1="63.7864571%" y1="22.5739332%" x2="35.8911985%" y2="81.8420566%" id="linearGradient-4">
            <stop stop-color="#02CEF5" offset="0%"></stop>
            <stop stop-color="#04CAF5" offset="20.7%"></stop>
            <stop stop-color="#08BDF4" offset="42.15%"></stop>
            <stop stop-color="#10A9F3" offset="63.95%"></stop>
            <stop stop-color="#1B8CF2" offset="85.84%"></stop>
            <stop stop-color="#2375F1" offset="100%"></stop>
        </linearGradient>
        <linearGradient x1="-0.0816816338%" y1="50.0009947%" x2="99.8657326%" y2="50.0009947%" id="linearGradient-5">
            <stop stop-color="#00D6F5" offset="0%"></stop>
            <stop stop-color="#5FE9FC" offset="100%"></stop>
        </linearGradient>
    </defs>
    <g id="logo-新" stroke="none" stroke-width="1" fill="none" fill-rule="evenodd">
        <g id="无追new备份" fill-rule="nonzero">
            <path d="M51.5633045,51.8575204 C53.2539841,50.2237316 54.8556806,48.4711219 56.368394,46.6591017 C62.6565358,39.0248525 69.3006101,27.6477419 70.7836624,12.4683594 L70.7540014,12.4683594 C70.8133235,11.9930754 70.8429845,11.5177914 70.8429845,11.0128021 C70.8429845,8.81461365 70.3387467,6.73524617 69.4192543,4.8935207 C70.0124752,5.10145744 71.1099339,5.51733094 71.139595,5.51733094 C71.169256,5.51733094 71.1989171,5.54703619 71.1989171,5.54703619 C76.8641769,7.68581416 80.156553,13.5971588 79.0294333,19.5382088 C77.2201094,28.9844781 72.5929862,42.6191877 60.7878899,55.4518556 C56.5166992,60.1155798 49.6353365,61.333495 44.0590598,58.3332648 C43.9997377,58.3035595 43.9700767,58.2738543 43.9107546,58.244149 C45.6904173,57.1153495 48.9234714,54.2339403 50.5548289,52.7486779 C50.9107546,52.4813306 51.237033,52.1842781 51.5633045,51.8575204 Z" id="路径" fill="url(#linearGradient-1)"></path>
            <g id="编组">
                <path d="M57.2878864,10.2998761 C57.6141579,7.65610891 57.4065306,3.25973197 57.1989033,1.65564849 C49.1607597,0.200091253 36.5251541,-1.19605548 22.0209025,1.65564849 L22.0209025,1.65564849 C21.3980205,1.77446948 20.8344606,1.89329048 20.2412397,2.01211148 L20.2412397,2.01211148 C16.0886932,2.87356372 13.0039444,6.55701467 13.0039444,10.9533916 C13.0039444,11.2504441 13.0039444,11.5474966 13.0336055,11.8148439 L13.0336055,11.8148439 C13.359877,14.8447793 13.982759,18.498525 15.1395398,22.5087337 L15.1395398,22.5087337 C14.9022514,21.706692 14.7836072,20.8452397 14.7836072,19.9540823 C14.7836072,15.5280001 17.9276781,11.8445491 22.1098856,10.9830969 C29.7031134,9.28989764 41.2115994,8.1908034 52.9573737,10.1513499 L52.9573737,10.1513499 C55.0336469,10.5672234 56.6056823,12.4089489 56.6056823,14.6368426 C56.6056823,14.9338951 56.5760213,15.2309476 56.5166992,15.5280001 L56.5166992,15.5280001 C56.8429707,13.9536218 57.0802591,12.4089489 57.2285643,10.9236864 C57.2285643,10.9236864 57.2285643,10.9236864 57.2285643,10.9533916 C57.2285643,10.7157496 57.2582254,10.5078129 57.2878864,10.2998761 Z" id="路径" fill="url(#linearGradient-2)"></path>
                <path d="M22.7327676,15.3497686 C22.7031065,15.1121266 22.6734455,14.9041898 22.6734455,14.6665478 C22.6734455,12.4089489 24.275142,10.5672234 26.4107373,10.1810551 L26.4107373,10.1810551 C24.8387019,10.4186971 23.3853106,10.7157496 22.0505635,11.0128021 C22.0505635,11.0128021 22.0505635,11.0128021 22.0505635,11.0128021 L22.0505635,11.0128021 L22.0505635,11.0128021 L22.0505635,11.0128021 C17.8980171,11.8742544 14.7539462,15.5577053 14.7539462,19.9837875 C14.7539462,20.874945 14.8725903,21.7363972 15.1098787,22.538439 C15.1098787,22.538439 15.1098787,22.538439 15.1098787,22.538439 C17.245474,29.9647514 21.2200542,38.5198633 28.4870105,46.3323439 C31.2158268,44.8767867 33.7963378,43.1538822 36.1692215,41.1933357 C28.4276885,33.2917393 24.3937862,23.8157647 22.7327676,15.3497686 Z" id="形状" fill="url(#linearGradient-3)"></path>
                <path d="M59.3938207,2.10122723 C58.6819556,1.95270098 57.9700905,1.80417473 57.1692422,1.65564849 C57.1692422,1.65564849 57.1692422,1.65564849 57.1692422,1.65564849 C54.8556806,1.23977499 52.1565254,0.823901495 49.1607597,0.526848999 C53.7285609,1.03183824 57.2878864,4.8935207 57.2878864,9.61665539 C57.2878864,10.0622341 57.2582254,10.5375181 57.1989033,10.9830969 C57.1989033,10.9830969 57.1989033,10.9533916 57.1989033,10.9533916 C55.8048341,23.8157647 48.7158441,40.9556937 30.5039617,50.4910789 L30.5039617,50.4910789 C29.9107408,50.7584261 29.2581977,50.9069524 28.5759937,50.9069524 C27.2412466,50.9069524 26.0548048,50.3425526 25.2242955,49.4216899 L25.2242955,49.4216899 C25.2242955,49.4216899 25.2242955,49.4216899 25.2242955,49.4513951 C25.9064995,50.1940264 26.4997205,50.7881314 26.4997205,50.7881314 C26.4997205,50.7881314 26.6480257,50.9663629 27.5971792,51.8872256 C27.5971792,51.8872256 27.5971792,51.8872256 27.5971792,51.8872256 C27.5971792,51.8872256 27.5971792,51.8872256 27.5971792,51.8872256 L27.5971792,51.8872256 C27.5971792,51.8872256 27.5971792,51.8872256 27.5675181,51.8872256 C28.8132821,53.0754356 32.7878622,56.7588866 35.2497291,58.3035595 C50.4361847,49.8672686 64.2582323,34.0640758 66.2457473,11.1019179 C66.2457473,11.0425074 66.2457473,11.0128021 66.2457473,10.9533916 C66.2751834,6.67583567 63.3684009,3.08150047 59.3938207,2.10122723 Z" id="路径" fill="url(#linearGradient-4)"></path>
                <path d="M36.1988826,54.8874558 C32.9658285,54.8874558 29.9997239,53.7586563 27.6565013,51.8872256 L27.6565013,51.8872256 C27.6565013,51.8872256 27.6565013,51.8872256 27.6565013,51.8872256 C26.7073478,50.9366576 26.5590425,50.7881314 26.5590425,50.7881314 C26.5590425,50.7881314 25.9954827,50.1940264 25.2836176,49.4513951 C18.3725938,41.935967 10.156484,29.6379936 8.46580436,12.4980646 L8.49546541,12.4980646 C8.43614332,12.0227806 8.40648227,11.5474966 8.40648227,11.0425074 C8.40648227,8.8443189 8.91072006,6.76495142 9.83021249,4.92322594 C9.23699156,5.13116269 8.13953286,5.54703619 8.10987181,5.54703619 C8.08021076,5.54703619 8.05054972,5.57674144 8.05054972,5.57674144 C2.38528989,7.71551941 -0.907086234,13.6268641 0.220033521,19.567914 C2.02935734,29.0141834 6.65648055,42.648893 18.4615769,55.4815608 C22.7327676,60.145285 29.6141303,61.3632002 35.190407,58.36297 C35.2497291,58.3332648 35.2793901,58.3035595 35.3387122,58.2738543 L35.3387122,58.2738543 C38.5717663,56.4618341 41.7751592,54.3230561 44.800586,51.8575204 C42.3980412,53.7586563 39.4319366,54.8874558 36.1988826,54.8874558 Z" id="路径" fill="url(#linearGradient-5)"></path>
            </g>
        </g>
    </g>
</svg>