<?xml version="1.0" encoding="UTF-8"?>
<svg width="310px" height="60px" viewBox="0 0 310 60" version="1.1" xmlns="http://www.w3.org/2000/svg" xmlns:xlink="http://www.w3.org/1999/xlink">
    <title>logo 新</title>
    <defs>
        <linearGradient x1="41.941035%" y1="82.7345591%" x2="62.3302977%" y2="26.9250605%" id="linearGradient-1">
            <stop stop-color="#2075ED" offset="0%"></stop>
            <stop stop-color="#115BCA" offset="100%"></stop>
        </linearGradient>
        <linearGradient x1="-0.04490467%" y1="50.0292905%" x2="99.9714069%" y2="50.0292905%" id="linearGradient-2">
            <stop stop-color="#02CEF5" offset="0%"></stop>
            <stop stop-color="#04CAF5" offset="20.7%"></stop>
            <stop stop-color="#08BDF4" offset="42.15%"></stop>
            <stop stop-color="#10A9F3" offset="63.95%"></stop>
            <stop stop-color="#1B8CF2" offset="85.84%"></stop>
            <stop stop-color="#2375F1" offset="100%"></stop>
        </linearGradient>
        <linearGradient x1="54.7352874%" y1="71.2029581%" x2="41.8281443%" y2="15.9559573%" id="linearGradient-3">
            <stop stop-color="#2177F1" offset="0%"></stop>
            <stop stop-color="#1971ED" offset="41.85%"></stop>
            <stop stop-color="#0B66E6" offset="83.9%"></stop>
        </linearGradient>
        <linearGradient x1="63.7864571%" y1="22.5739332%" x2="35.8911985%" y2="81.8420566%" id="linearGradient-4">
            <stop stop-color="#02CEF5" offset="0%"></stop>
            <stop stop-color="#04CAF5" offset="20.7%"></stop>
            <stop stop-color="#08BDF4" offset="42.15%"></stop>
            <stop stop-color="#10A9F3" offset="63.95%"></stop>
            <stop stop-color="#1B8CF2" offset="85.84%"></stop>
            <stop stop-color="#2375F1" offset="100%"></stop>
        </linearGradient>
        <linearGradient x1="-0.0816816338%" y1="50.0009947%" x2="99.8657326%" y2="50.0009947%" id="linearGradient-5">
            <stop stop-color="#00D6F5" offset="0%"></stop>
            <stop stop-color="#5FE9FC" offset="100%"></stop>
        </linearGradient>
    </defs>
    <g id="logo-新" stroke="none" stroke-width="1" fill="none" fill-rule="evenodd">
        <g id="无追new备份" fill-rule="nonzero">
            <path d="M51.5633045,51.8575204 C53.2539841,50.2237316 54.8556806,48.4711219 56.368394,46.6591017 C62.6565358,39.0248525 69.3006101,27.6477419 70.7836624,12.4683594 L70.7540014,12.4683594 C70.8133235,11.9930754 70.8429845,11.5177914 70.8429845,11.0128021 C70.8429845,8.81461365 70.3387467,6.73524617 69.4192543,4.8935207 C70.0124752,5.10145744 71.1099339,5.51733094 71.139595,5.51733094 C71.169256,5.51733094 71.1989171,5.54703619 71.1989171,5.54703619 C76.8641769,7.68581416 80.156553,13.5971588 79.0294333,19.5382088 C77.2201094,28.9844781 72.5929862,42.6191877 60.7878899,55.4518556 C56.5166992,60.1155798 49.6353365,61.333495 44.0590598,58.3332648 C43.9997377,58.3035595 43.9700767,58.2738543 43.9107546,58.244149 C45.6904173,57.1153495 48.9234714,54.2339403 50.5548289,52.7486779 C50.9107546,52.4813306 51.237033,52.1842781 51.5633045,51.8575204 Z" id="路径" fill="url(#linearGradient-1)"></path>
            <g id="编组" transform="translate(90.359953, 7.864046)" fill="#fff">
                <g transform="translate(112.207738, 0.000000)">
                    <path d="M51.0763216,41.64676 C47.1610635,41.64676 43.2458054,41.1120655 39.5085135,40.0129713 L39.1229199,39.8941503 L39.4788525,39.6862135 C43.2754664,37.3394988 46.6864867,34.4580896 49.6822524,31.1311016 L49.6822524,25.9029777 L36.0381711,25.9029777 L36.0381711,0 L30.165284,0 L30.165284,25.9029777 L16.2839144,25.9029777 L16.2839144,31.1311016 C19.250019,34.4580896 22.6907003,37.3097935 26.4873143,39.6862135 L26.8432468,39.8941503 L26.4576532,40.0129713 C22.7203614,41.0823602 18.8051033,41.64676 14.8898452,41.64676 C14.8898452,41.64676 14.8898452,41.64676 14.8898452,41.64676 L14.8898452,46.6966524 L14.8898452,46.6966524 C21.1483259,46.6966524 27.2288404,45.4787372 32.9534223,43.072612 L33.0127444,43.0429067 L33.0720665,43.072612 C38.7966484,45.4787372 44.8771629,46.6966524 51.1356436,46.6966524 L51.1356436,46.6966524 L51.0763216,41.64676 C51.0763216,41.64676 51.0763216,41.64676 51.0763216,41.64676 Z M32.9237613,37.5177303 L32.8347781,37.488025 C29.512741,35.8542363 26.3983311,33.8045741 23.6101928,31.3687436 L23.2542602,31.0419859 L42.6229234,31.0419859 L42.2669908,31.3687436 C39.4788525,33.8045741 36.3644426,35.8839416 33.0424055,37.488025 L32.9237613,37.5177303 Z" id="形状"></path>
                    <path d="M20.4067998,22.8136317 L30.4322334,22.8136317 L30.6695218,17.7043288 L23.1652771,17.7043288 C22.6017172,17.7043288 22.1271405,17.2290448 22.1271405,16.664645 L22.1271405,15.1793826 L26.7839247,15.1793826 L26.7839247,10.0700796 L22.1271405,10.0700796 L22.1271405,7.42631241 L28.4449433,5.73311318 L28.4449433,0.445578744 L16.2245923,3.7725667 L16.2245923,18.6548968 C16.2245923,20.9124957 18.0932382,22.8136317 20.4067998,22.8136317 Z" id="路径"></path>
                    <path d="M43.5424158,7.27778616 L43.5424158,10.0403744 L39.3305473,10.0403744 L39.3305473,15.1496773 L43.5424158,15.1496773 L43.5424158,16.6052345 C43.5424158,17.1993395 43.0678391,17.6746235 42.4746182,17.6746235 L35.7415607,17.6746235 L35.5635944,22.7839265 L45.2330955,22.7839265 C47.5466571,22.7839265 49.415303,20.9124957 49.415303,18.5954863 L49.415303,2.10907272 L37.6398676,2.10907272 L37.6398676,7.21837566 L43.5424158,7.27778616 L43.5424158,7.27778616 Z" id="路径"></path>
                    <path d="M10.4406883,42.3893912 L10.4406883,30.6855229 L10.4406883,30.5369966 L10.5889935,30.5072914 L14.5042516,29.8240706 L14.5042516,23.6156735 L10.6483156,24.2988942 L10.4406883,24.3285994 L10.4406883,24.1206627 L10.4406883,15.1793826 L10.4406883,15.0011511 L10.6186545,15.0011511 L14.5042516,15.0011511 L14.5042516,8.91157489 L10.6186545,8.91157489 L10.4406883,8.91157489 L10.4406883,8.73334339 L10.4406883,0.118820999 L4.56780111,0.118820999 L4.56780111,8.73334339 L4.56780111,8.91157489 L4.38983484,8.91157489 L0.0593220924,8.91157489 L0.0593220924,15.0011511 L4.38983484,15.0011511 L4.56780111,15.0011511 L4.56780111,15.1793826 L4.56780111,25.2494622 L4.56780111,25.3979884 L4.41949588,25.4276937 L0,26.2000302 L0,32.4084273 L4.33051274,31.6360909 L4.53814007,31.6063856 L4.53814007,31.8143224 L4.53814007,39.4485715 C4.53814007,40.0426765 4.06356333,40.5179605 3.47034241,40.5179605 L0.0889831386,40.5179605 L0.0889831386,46.6075367 L6.2288197,46.6075367 C8.57204235,46.6075367 10.4406883,44.7361059 10.4406883,42.3893912 Z" id="路径"></path>
                </g>
                <path d="M70.2670184,3.98050345 L70.2670184,10.2780164 L70.2670184,22.486874 L70.2670184,28.9626184 L70.2670184,31.9628486 L70.2670184,38.1712458 C70.2670184,38.200951 70.2966795,38.2306563 70.3263405,38.2306563 L101.20349,38.2306563 C103.546712,38.2306563 105.445019,36.3295203 105.445019,33.9828056 L105.445019,32.1113749 L105.445019,31.9331434 L105.445019,28.9329131 L105.445019,28.7546816 L105.445019,28.7546816 L105.445019,22.724516 C105.445019,22.6948107 105.415358,22.6651055 105.385697,22.6651055 L76.3475329,22.6651055 L76.1695666,22.6651055 L76.1695666,22.486874 L76.1695666,19.63517 L76.1695666,19.4569385 L76.3475329,19.4569385 L99.9873867,19.4569385 C102.300948,19.4569385 104.169594,17.5855078 104.169594,15.2684983 L104.169594,13.3673623 L104.169594,13.1891308 L104.169594,10.3374269 L104.169594,10.1591954 L104.169594,10.1591954 L104.169594,4.0696192 L90.1399194,4.0696192 L89.9619531,4.0696192 L89.9619531,3.8913877 L89.9619531,0.237641997 L84.0594049,0.237641997 L84.0594049,3.8913877 L84.0594049,4.0696192 L83.8814386,4.0696192 L70.2670184,3.98050345 L70.2670184,3.98050345 Z M76.3475329,28.7546816 L99.5721321,28.7546816 C99.5721321,28.7546816 99.5721321,28.7546816 99.5721321,28.7546816 L99.5721321,31.0716911 C99.5721321,31.6360909 99.0975553,32.1113749 98.5339955,32.1113749 L76.3475329,32.1113749 L76.1695666,32.1113749 L76.1695666,31.9331434 L76.1695666,28.9329131 L76.1695666,28.7546816 L76.3475329,28.7546816 L76.3475329,28.7546816 Z M98.267046,10.0700796 L98.267046,12.2385628 C98.267046,12.8326678 97.7924693,13.3079518 97.1992484,13.3079518 L76.3475329,13.3079518 L76.1695666,13.3079518 L76.1695666,13.1297203 L76.1695666,10.2780164 L76.1695666,10.0997849 L76.3475329,10.0997849 L98.267046,10.0700796 L98.267046,10.0700796 Z" id="形状"></path>
                <polygon id="路径" points="63.7415883 2.19818847 66.6187098 10.1294901 60.360229 10.1294901 57.4831075 2.19818847"></polygon>
                <polygon id="路径" points="172.09339 38.7059403 169.216269 46.6075367 175.474749 46.6075367 178.351871 38.7059403"></polygon>
                <polygon id="路径" points="216.05106 38.7059403 218.928182 46.6075367 212.64004 46.6075367 209.79258 38.7059403"></polygon>
                <g transform="translate(168.445081, 0.148526)" id="路径">
                    <path d="M23.758498,37.7553723 L23.758498,39.4188663 C23.758498,40.0129713 23.2839213,40.4882552 22.6907003,40.4882552 L19.27968,40.4882552 L19.27968,46.5778314 L25.3898555,46.5778314 C27.7330782,46.5778314 29.6313852,44.6766954 29.6313852,42.3299807 L29.6313852,37.7553723 L23.758498,37.7553723 L23.758498,37.7553723 Z"></path>
                    <path d="M51.1949657,17.615213 L51.1949657,14.1396988 C51.1949657,11.8226894 49.3263198,9.98096388 47.0424193,9.98096388 L28.5932485,9.98096388 L28.5932485,8.16894365 L49.5636082,8.16894365 L49.5636082,2.07936747 L28.5932485,2.07936747 L28.5932485,0 L22.6907003,0 L22.6907003,2.07936747 L1.72034068,2.07936747 L1.72034068,8.16894365 L22.6907003,8.16894365 L22.6907003,9.98096388 L4.21186856,9.98096388 C1.89830696,9.98096388 0,11.8820999 0,14.1991093 L0,17.6449183 L5.87288715,17.6449183 L5.87288715,16.1596558 C5.87288715,15.5952561 6.34746389,15.1199721 6.91102376,15.1199721 L20.9110376,15.1199721 L4.71610635,21.0313167 L4.71610635,26.2000302 L14.8601841,26.2000302 L13.8813696,26.5564932 L2.25423951,30.8637544 L2.25423951,36.0027626 L23.728837,36.0027626 L23.728837,37.9336038 L29.6017241,38.438593 L29.6017241,36.0027626 L49.3263198,36.0027626 L49.3263198,32.6757746 L49.3263198,32.6757746 L49.3263198,30.7746386 L42.5042792,23.9424312 L36.3941037,26.1703249 L40.7839385,30.5667019 L41.11021,30.8934596 L17.0551016,30.8934596 L18.0339161,30.5369966 L41.4958036,21.9818847 L41.4958036,16.545824 L28.9788421,21.0907272 L28.9491811,21.0907272 L19.5466294,21.0907272 L20.525444,20.7342642 L35.8305438,15.1496773 L35.8602049,15.1496773 L44.2246199,15.1496773 C44.7881798,15.1496773 45.2627565,15.6249613 45.2627565,16.189361 L45.2627565,17.6746235 L51.1949657,17.615213 L51.1949657,17.615213 Z"></path>
                </g>
                <path d="M33.6059653,39.5376873 L33.6059653,25.7247462 L33.6059653,25.5465147 L33.7839316,25.5465147 L49.2373367,25.5465147 L49.2373367,19.4569385 L24.5296852,19.4569385 L24.2923968,19.4569385 L24.3517189,19.2192965 C25.2712114,15.7140771 25.8051102,12.1197418 25.9237544,8.52540664 L25.9237544,8.34717515 L26.1017207,8.34717515 L46.6568257,8.34717515 L46.6568257,2.25759897 L3.97458019,2.25759897 L3.97458019,8.34717515 L19.7839178,8.34717515 L19.9618841,8.34717515 L19.9618841,8.52540664 C19.8432399,12.1791523 19.2203579,15.8031928 18.1228992,19.3084123 L18.0932382,19.4272333 L17.9449329,19.4272333 L1.33474708,19.4272333 L1.33474708,25.5168094 L15.3050998,25.5168094 L15.6017103,25.5168094 L15.4534051,25.7841567 C15.0974725,26.4673774 14.8008621,27.0614824 14.4745905,27.5961769 C11.0042481,33.6560478 6.02119238,38.7653508 0.0593220924,42.3893912 L0,42.4190965 L4.3008517,46.7263577 C10.1144168,42.953791 15.1271336,37.844488 18.8051033,31.9331434 C20.0508672,29.9428916 21.1483259,27.8338189 22.0678184,25.6059252 L22.1271405,25.4871042 L22.2457846,25.4871042 L27.4661288,25.4871042 L27.6440951,25.4871042 L27.6440951,25.6653357 L27.6440951,42.4488017 C27.6440951,44.7658112 29.542402,46.6669472 31.8559636,46.6669472 L50.8093721,46.6669472 L50.8093721,40.577371 L34.6144409,40.577371 C34.0805421,40.577371 33.6059653,40.102087 33.6059653,39.5376873 Z" id="路径"></path>
                <path d="M107.106038,40.577371 L73.9746492,40.577371 C71.8390539,40.577371 69.7924417,39.8347398 68.1610842,38.4682983 L67.0339644,37.5177303 L66.9746423,37.4583198 L66.9746423,37.369204 L66.9746423,20.6748537 L66.9746423,20.4966222 L66.9746423,20.4966222 L66.9746423,18.5954863 C66.9746423,16.2784768 65.1059964,14.4070461 62.7924348,14.4070461 L60.8941278,14.4070461 L55.9407331,14.4070461 C55.9407331,14.4070461 55.9407331,14.4070461 55.9407331,14.4070461 L55.9407331,20.4966222 C55.9407331,20.4966222 55.9407331,20.4966222 55.9407331,20.4966222 L60.0339575,20.4966222 C60.5975174,20.4966222 61.0720941,20.9719062 61.0720941,21.536306 L61.0720941,39.4782768 C61.0720941,40.0723818 60.5975174,40.5476657 60.0042965,40.5476657 L57.5720907,40.5476657 L57.5720907,46.6372419 L62.7034517,46.6372419 C64.1568429,46.6372419 65.49159,45.8946107 66.2627772,44.6766954 L66.3517603,44.5281692 L66.5000656,44.6172849 C68.6059999,45.9243159 71.0085446,46.6372419 73.5000725,46.6372419 L107.076377,46.6372419 C107.076377,46.6372419 107.076377,46.6372419 107.076377,46.6372419 L107.106038,40.577371 C107.135699,40.577371 107.106038,40.577371 107.106038,40.577371 Z" id="路径"></path>
            </g>
            <g id="编组">
                <path d="M57.2878864,10.2998761 C57.6141579,7.65610891 57.4065306,3.25973197 57.1989033,1.65564849 C49.1607597,0.200091253 36.5251541,-1.19605548 22.0209025,1.65564849 L22.0209025,1.65564849 C21.3980205,1.77446948 20.8344606,1.89329048 20.2412397,2.01211148 L20.2412397,2.01211148 C16.0886932,2.87356372 13.0039444,6.55701467 13.0039444,10.9533916 C13.0039444,11.2504441 13.0039444,11.5474966 13.0336055,11.8148439 L13.0336055,11.8148439 C13.359877,14.8447793 13.982759,18.498525 15.1395398,22.5087337 L15.1395398,22.5087337 C14.9022514,21.706692 14.7836072,20.8452397 14.7836072,19.9540823 C14.7836072,15.5280001 17.9276781,11.8445491 22.1098856,10.9830969 C29.7031134,9.28989764 41.2115994,8.1908034 52.9573737,10.1513499 L52.9573737,10.1513499 C55.0336469,10.5672234 56.6056823,12.4089489 56.6056823,14.6368426 C56.6056823,14.9338951 56.5760213,15.2309476 56.5166992,15.5280001 L56.5166992,15.5280001 C56.8429707,13.9536218 57.0802591,12.4089489 57.2285643,10.9236864 C57.2285643,10.9236864 57.2285643,10.9236864 57.2285643,10.9533916 C57.2285643,10.7157496 57.2582254,10.5078129 57.2878864,10.2998761 Z" id="路径" fill="url(#linearGradient-2)"></path>
                <path d="M22.7327676,15.3497686 C22.7031065,15.1121266 22.6734455,14.9041898 22.6734455,14.6665478 C22.6734455,12.4089489 24.275142,10.5672234 26.4107373,10.1810551 L26.4107373,10.1810551 C24.8387019,10.4186971 23.3853106,10.7157496 22.0505635,11.0128021 C22.0505635,11.0128021 22.0505635,11.0128021 22.0505635,11.0128021 L22.0505635,11.0128021 L22.0505635,11.0128021 L22.0505635,11.0128021 C17.8980171,11.8742544 14.7539462,15.5577053 14.7539462,19.9837875 C14.7539462,20.874945 14.8725903,21.7363972 15.1098787,22.538439 C15.1098787,22.538439 15.1098787,22.538439 15.1098787,22.538439 C17.245474,29.9647514 21.2200542,38.5198633 28.4870105,46.3323439 C31.2158268,44.8767867 33.7963378,43.1538822 36.1692215,41.1933357 C28.4276885,33.2917393 24.3937862,23.8157647 22.7327676,15.3497686 Z" id="形状" fill="url(#linearGradient-3)"></path>
                <path d="M59.3938207,2.10122723 C58.6819556,1.95270098 57.9700905,1.80417473 57.1692422,1.65564849 C57.1692422,1.65564849 57.1692422,1.65564849 57.1692422,1.65564849 C54.8556806,1.23977499 52.1565254,0.823901495 49.1607597,0.526848999 C53.7285609,1.03183824 57.2878864,4.8935207 57.2878864,9.61665539 C57.2878864,10.0622341 57.2582254,10.5375181 57.1989033,10.9830969 C57.1989033,10.9830969 57.1989033,10.9533916 57.1989033,10.9533916 C55.8048341,23.8157647 48.7158441,40.9556937 30.5039617,50.4910789 L30.5039617,50.4910789 C29.9107408,50.7584261 29.2581977,50.9069524 28.5759937,50.9069524 C27.2412466,50.9069524 26.0548048,50.3425526 25.2242955,49.4216899 L25.2242955,49.4216899 C25.2242955,49.4216899 25.2242955,49.4216899 25.2242955,49.4513951 C25.9064995,50.1940264 26.4997205,50.7881314 26.4997205,50.7881314 C26.4997205,50.7881314 26.6480257,50.9663629 27.5971792,51.8872256 C27.5971792,51.8872256 27.5971792,51.8872256 27.5971792,51.8872256 C27.5971792,51.8872256 27.5971792,51.8872256 27.5971792,51.8872256 L27.5971792,51.8872256 C27.5971792,51.8872256 27.5971792,51.8872256 27.5675181,51.8872256 C28.8132821,53.0754356 32.7878622,56.7588866 35.2497291,58.3035595 C50.4361847,49.8672686 64.2582323,34.0640758 66.2457473,11.1019179 C66.2457473,11.0425074 66.2457473,11.0128021 66.2457473,10.9533916 C66.2751834,6.67583567 63.3684009,3.08150047 59.3938207,2.10122723 Z" id="路径" fill="url(#linearGradient-4)"></path>
                <path d="M36.1988826,54.8874558 C32.9658285,54.8874558 29.9997239,53.7586563 27.6565013,51.8872256 L27.6565013,51.8872256 C27.6565013,51.8872256 27.6565013,51.8872256 27.6565013,51.8872256 C26.7073478,50.9366576 26.5590425,50.7881314 26.5590425,50.7881314 C26.5590425,50.7881314 25.9954827,50.1940264 25.2836176,49.4513951 C18.3725938,41.935967 10.156484,29.6379936 8.46580436,12.4980646 L8.49546541,12.4980646 C8.43614332,12.0227806 8.40648227,11.5474966 8.40648227,11.0425074 C8.40648227,8.8443189 8.91072006,6.76495142 9.83021249,4.92322594 C9.23699156,5.13116269 8.13953286,5.54703619 8.10987181,5.54703619 C8.08021076,5.54703619 8.05054972,5.57674144 8.05054972,5.57674144 C2.38528989,7.71551941 -0.907086234,13.6268641 0.220033521,19.567914 C2.02935734,29.0141834 6.65648055,42.648893 18.4615769,55.4815608 C22.7327676,60.145285 29.6141303,61.3632002 35.190407,58.36297 C35.2497291,58.3332648 35.2793901,58.3035595 35.3387122,58.2738543 L35.3387122,58.2738543 C38.5717663,56.4618341 41.7751592,54.3230561 44.800586,51.8575204 C42.3980412,53.7586563 39.4319366,54.8874558 36.1988826,54.8874558 Z" id="路径" fill="url(#linearGradient-5)"></path>
            </g>
        </g>
    </g>
</svg>